<svg xmlns="http://www.w3.org/2000/svg" viewBox="0 0 24 30" x="0px" y="0px"><path d="M12,9.5A2.5,2.5,0,1,0,14.5,12,2.5,2.5,0,0,0,12,9.5Zm0,4A1.5,1.5,0,1,1,13.5,12,1.5,1.5,0,0,1,12,13.5Zm3.852-5.351C11.057,3.354,4.137,1.666,2.9,2.9c-.9.9-.231,4.354,1.424,7.635q.313-.48.652-.946C3.48,6.417,3.341,3.946,3.6,3.612c.44-.35,3.817.053,7.474,2.15a20.418,20.418,0,0,0-2.93,2.387C3.354,12.943,1.666,19.864,2.9,21.1a2.07,2.07,0,0,0,1.453.4,15.491,15.491,0,0,0,6.174-1.827q-.479-.314-.942-.65C6.414,20.519,3.944,20.657,3.611,20.4c-.348-.44.054-3.817,2.151-7.474a20.315,20.315,0,0,0,2.386,2.93c3.789,3.788,8.9,5.638,11.494,5.637A2.1,2.1,0,0,0,21.1,21.1c.9-.9.231-4.353-1.424-7.634q-.314.48-.652.945c1.5,3.173,1.636,5.645,1.373,5.979-.443.347-3.819-.055-7.475-2.151a20.354,20.354,0,0,0,2.931-2.386C20.646,11.058,22.334,4.137,21.1,2.9c-.9-.9-4.353-.231-7.634,1.424q.48.313.945.652c3.173-1.5,5.643-1.637,5.979-1.373.348.441-.054,3.818-2.151,7.475A20.327,20.327,0,0,0,15.852,8.149Zm-.707,7a19.441,19.441,0,0,1-3.151,2.526,19.189,19.189,0,0,1-3.139-2.526A19.462,19.462,0,0,1,6.328,12a19.214,19.214,0,0,1,2.527-3.14,19.449,19.449,0,0,1,3.15-2.527,19.2,19.2,0,0,1,3.14,2.527,19.462,19.462,0,0,1,2.527,3.149A19.214,19.214,0,0,1,15.145,15.145Z"/><text x="0" y="39" fill="#000000" font-size="5px" font-weight="bold" font-family="'Helvetica Neue', Helvetica, Arial-Unicode, Arial, Sans-serif">Created by Royyan Wijaya</text><text x="0" y="44" fill="#000000" font-size="5px" font-weight="bold" font-family="'Helvetica Neue', Helvetica, Arial-Unicode, Arial, Sans-serif">from the Noun Project</text></svg>